<svg width="800" height="100" viewBox="0 0 800 100" fill="none" xmlns="http://www.w3.org/2000/svg">
<path d="M186.49 37.0935H118.938L116.525 39.0238V99.0961H135.102V76.4179L136.791 74.7295H186.489C199.034 74.7295 204.824 71.3523 204.824 62.6672V48.9156C204.825 40.4711 199.035 37.0935 186.49 37.0935ZM186.49 59.2887C186.49 63.3898 183.836 64.1135 177.804 64.1135H137.032L135.102 62.4251V49.6387L136.791 47.95H177.804C183.594 47.95 186.489 48.6738 186.489 52.7748L186.49 59.2887ZM239.083 48.4323L255.247 72.0751L254.282 74.2465H218.576L209.409 85.5856H262.484L266.345 87.7567L274.547 99.0958H296.019L248.975 36.3698M452.11 87.0329V70.1455L454.041 68.4564H489.988V57.8411H433.051V99.0958H517.008V88.4805H454.282M433.051 37.0935H517.732V48.6738H433.051V37.0935ZM338.721 48.1911H406.996C406.031 39.5061 400.482 37.0935 386.972 37.0935H337.997C322.557 37.0935 317.732 39.9888 317.732 51.8098V84.6203C317.732 96.2009 322.557 99.3373 337.997 99.3373H386.972C400.723 99.3373 406.031 96.6832 406.514 87.7567H338.721L336.791 85.8264V49.6387M70.6872 61.219H21.2302L19.7826 59.5305V48.9153L21.2302 47.7091H88.0576L89.0226 45.5377C86.8512 39.7473 80.8199 36.8527 69.9634 36.8527H23.4013C7.96122 36.8527 3.13607 39.7476 3.13607 51.5687V58.5653C3.13607 70.1458 7.96122 73.2822 23.4013 73.2822H72.8587L74.306 74.7292V85.8268L73.0998 87.5158H1.68845C1.68845 87.5158 0 88.4805 0 88.722C1.20613 96.9247 6.75509 99.0958 20.0238 99.0958H70.6876C86.1277 99.0958 91.1943 96.2009 91.1943 84.3795V75.9353C91.194 64.3554 86.1277 61.219 70.6872 61.219ZM571.049 36.8524H543.063L541.616 39.7473L572.496 62.4255C578.287 59.0476 584.8 55.6703 591.555 52.2925M596.139 79.3132L623.401 99.0958H651.387L652.593 96.4417L612.062 66.7676C606.755 70.8687 601.206 74.9703 596.139 79.3132Z" fill="#005288"/>
<path d="M566.948 99.0958H541.616L539.444 95.7179C556.574 79.0717 633.292 8.14295 799.999 0.664062C799.999 0.664062 660.313 5.48887 566.948 99.0958Z" fill="#A7A9AC"/>
</svg>
