<svg width="99" height="81" viewBox="0 0 99 81" fill="none" xmlns="http://www.w3.org/2000/svg">
<path d="M45.601 80.28C67.7697 80.28 85.741 62.3087 85.741 40.14C85.741 17.9713 67.7697 0 45.601 0C23.4323 0 5.461 17.9713 5.461 40.14C5.461 62.3087 23.4323 80.28 45.601 80.28Z" fill="#0B3D91"/>
<path d="M43.231 8.16C43.4795 8.16 43.681 7.95853 43.681 7.71C43.681 7.46147 43.4795 7.26 43.231 7.26C42.9825 7.26 42.781 7.46147 42.781 7.71C42.781 7.95853 42.9825 8.16 43.231 8.16Z" fill="white"/>
<path d="M47.851 8.76C48.0995 8.76 48.301 8.55853 48.301 8.31C48.301 8.06147 48.0995 7.86 47.851 7.86C47.6025 7.86 47.401 8.06147 47.401 8.31C47.401 8.55853 47.6025 8.76 47.851 8.76Z" fill="white"/>
<path d="M53.911 16.92C54.1595 16.92 54.361 16.7185 54.361 16.47C54.361 16.2215 54.1595 16.02 53.911 16.02C53.6625 16.02 53.461 16.2215 53.461 16.47C53.461 16.7185 53.6625 16.92 53.911 16.92Z" fill="white"/>
<path d="M20.671 58.92C20.9195 58.92 21.121 58.7185 21.121 58.47C21.121 58.2215 20.9195 58.02 20.671 58.02C20.4225 58.02 20.221 58.2215 20.221 58.47C20.221 58.7185 20.4225 58.92 20.671 58.92Z" fill="white"/>
<path d="M21.841 62.52C22.0895 62.52 22.291 62.3185 22.291 62.07C22.291 61.8215 22.0895 61.62 21.841 61.62C21.5925 61.62 21.391 61.8215 21.391 62.07C21.391 62.3185 21.5925 62.52 21.841 62.52Z" fill="white"/>
<path d="M16.261 59.347C16.4471 59.347 16.598 59.1961 16.598 59.01C16.598 58.8239 16.4471 58.673 16.261 58.673C16.0749 58.673 15.924 58.8239 15.924 59.01C15.924 59.1961 16.0749 59.347 16.261 59.347Z" fill="white"/>
<path d="M34.561 66.42C34.7477 66.42 34.899 66.2687 34.899 66.082C34.899 65.8953 34.7477 65.744 34.561 65.744C34.3743 65.744 34.223 65.8953 34.223 66.082C34.223 66.2687 34.3743 66.42 34.561 66.42Z" fill="white"/>
<path d="M63.263 60.457C63.4491 60.457 63.6 60.3061 63.6 60.12C63.6 59.9339 63.4491 59.783 63.263 59.783C63.0769 59.783 62.926 59.9339 62.926 60.12C62.926 60.3061 63.0769 60.457 63.263 60.457Z" fill="white"/>
<path d="M71.604 51.398C71.7907 51.398 71.942 51.2467 71.942 51.06C71.942 50.8733 71.7907 50.722 71.604 50.722C71.4173 50.722 71.266 50.8733 71.266 51.06C71.266 51.2467 71.4173 51.398 71.604 51.398Z" fill="white"/>
<path d="M30.721 19.439C30.9071 19.439 31.058 19.2881 31.058 19.102C31.058 18.9159 30.9071 18.765 30.721 18.765C30.5349 18.765 30.384 18.9159 30.384 19.102C30.384 19.2881 30.5349 19.439 30.721 19.439Z" fill="white"/>
<path d="M39.901 12.697C40.0871 12.697 40.238 12.5461 40.238 12.36C40.238 12.1739 40.0871 12.023 39.901 12.023C39.7149 12.023 39.564 12.1739 39.564 12.36C39.564 12.5461 39.7149 12.697 39.901 12.697Z" fill="white"/>
<path d="M38.904 12.037C39.0901 12.037 39.241 11.8861 39.241 11.7C39.241 11.5139 39.0901 11.363 38.904 11.363C38.7179 11.363 38.567 11.5139 38.567 11.7C38.567 11.8861 38.7179 12.037 38.904 12.037Z" fill="white"/>
<path d="M38.004 11.377C38.1901 11.377 38.341 11.2261 38.341 11.04C38.341 10.8539 38.1901 10.703 38.004 10.703C37.8179 10.703 37.667 10.8539 37.667 11.04C37.667 11.2261 37.8179 11.377 38.004 11.377Z" fill="white"/>
<path d="M32.161 21.18C32.3471 21.18 32.498 21.0291 32.498 20.843C32.498 20.6569 32.3471 20.506 32.161 20.506C31.9749 20.506 31.824 20.6569 31.824 20.843C31.824 21.0291 31.9749 21.18 32.161 21.18Z" fill="white"/>
<path d="M45.683 3.637C45.8691 3.637 46.02 3.48612 46.02 3.3C46.02 3.11388 45.8691 2.963 45.683 2.963C45.4969 2.963 45.346 3.11388 45.346 3.3C45.346 3.48612 45.4969 3.637 45.683 3.637Z" fill="white"/>
<path d="M47.904 13.357C48.0901 13.357 48.241 13.2061 48.241 13.02C48.241 12.8339 48.0901 12.683 47.904 12.683C47.7179 12.683 47.567 12.8339 47.567 13.02C47.567 13.2061 47.7179 13.357 47.904 13.357Z" fill="white"/>
<path d="M44.401 11.459C44.5871 11.459 44.738 11.3081 44.738 11.122C44.738 10.9359 44.5871 10.785 44.401 10.785C44.2149 10.785 44.064 10.9359 44.064 11.122C44.064 11.3081 44.2149 11.459 44.401 11.459Z" fill="white"/>
<path d="M38.401 14.04C38.5871 14.04 38.738 13.8891 38.738 13.703C38.738 13.5169 38.5871 13.366 38.401 13.366C38.2149 13.366 38.064 13.5169 38.064 13.703C38.064 13.8891 38.2149 14.04 38.401 14.04Z" fill="white"/>
<path d="M64.861 69.36C65.0471 69.36 65.198 69.2091 65.198 69.023C65.198 68.8369 65.0471 68.686 64.861 68.686C64.6749 68.686 64.524 68.8369 64.524 69.023C64.524 69.2091 64.6749 69.36 64.861 69.36Z" fill="white"/>
<path d="M20.101 61.088C20.2877 61.088 20.439 60.9367 20.439 60.75C20.439 60.5633 20.2877 60.412 20.101 60.412C19.9143 60.412 19.763 60.5633 19.763 60.75C19.763 60.9367 19.9143 61.088 20.101 61.088Z" fill="white"/>
<path d="M43.561 65.438C43.7477 65.438 43.899 65.2867 43.899 65.1C43.899 64.9133 43.7477 64.762 43.561 64.762C43.3743 64.762 43.223 64.9133 43.223 65.1C43.223 65.2867 43.3743 65.438 43.561 65.438Z" fill="white"/>
<path d="M27.083 60.818C27.2697 60.818 27.421 60.6667 27.421 60.48C27.421 60.2933 27.2697 60.142 27.083 60.142C26.8963 60.142 26.745 60.2933 26.745 60.48C26.745 60.6667 26.8963 60.818 27.083 60.818Z" fill="white"/>
<path d="M30.001 65.581C30.1877 65.581 30.339 65.4297 30.339 65.243C30.339 65.0563 30.1877 64.905 30.001 64.905C29.8143 64.905 29.663 65.0563 29.663 65.243C29.663 65.4297 29.8143 65.581 30.001 65.581Z" fill="white"/>
<path d="M51.481 62.58C51.6671 62.58 51.818 62.4291 51.818 62.243C51.818 62.0569 51.6671 61.906 51.481 61.906C51.2949 61.906 51.144 62.0569 51.144 62.243C51.144 62.4291 51.2949 62.58 51.481 62.58Z" fill="white"/>
<path d="M63.323 55.897C63.5091 55.897 63.66 55.7461 63.66 55.56C63.66 55.3739 63.5091 55.223 63.323 55.223C63.1369 55.223 62.986 55.3739 62.986 55.56C62.986 55.7461 63.1369 55.897 63.323 55.897Z" fill="white"/>
<path d="M72.301 59.999C72.4871 59.999 72.638 59.8481 72.638 59.662C72.638 59.4759 72.4871 59.325 72.301 59.325C72.1149 59.325 71.964 59.4759 71.964 59.662C71.964 59.8481 72.1149 59.999 72.301 59.999Z" fill="white"/>
<path d="M75.361 61.957C75.5471 61.957 75.698 61.8061 75.698 61.62C75.698 61.4339 75.5471 61.283 75.361 61.283C75.1749 61.283 75.024 61.4339 75.024 61.62C75.024 61.8061 75.1749 61.957 75.361 61.957Z" fill="white"/>
<path d="M75.864 56.617C76.0501 56.617 76.201 56.4661 76.201 56.28C76.201 56.0939 76.0501 55.943 75.864 55.943C75.6779 55.943 75.527 56.0939 75.527 56.28C75.527 56.4661 75.6779 56.617 75.864 56.617Z" fill="white"/>
<path d="M31.223 49.057C31.4091 49.057 31.56 48.9061 31.56 48.72C31.56 48.5339 31.4091 48.383 31.223 48.383C31.0369 48.383 30.886 48.5339 30.886 48.72C30.886 48.9061 31.0369 49.057 31.223 49.057Z" fill="white"/>
<path d="M31.351 56.91C31.5995 56.91 31.801 56.7085 31.801 56.46C31.801 56.2115 31.5995 56.01 31.351 56.01C31.1025 56.01 30.901 56.2115 30.901 56.46C30.901 56.7085 31.1025 56.91 31.351 56.91Z" fill="white"/>
<path d="M34.051 62.61C34.2995 62.61 34.501 62.4085 34.501 62.16C34.501 61.9115 34.2995 61.71 34.051 61.71C33.8025 61.71 33.601 61.9115 33.601 62.16C33.601 62.4085 33.8025 62.61 34.051 62.61Z" fill="white"/>
<path d="M66.391 56.67C66.6395 56.67 66.841 56.4685 66.841 56.22C66.841 55.9715 66.6395 55.77 66.391 55.77C66.1425 55.77 65.941 55.9715 65.941 56.22C65.941 56.4685 66.1425 56.67 66.391 56.67Z" fill="white"/>
<path d="M78.031 56.01C78.2795 56.01 78.481 55.8085 78.481 55.56C78.481 55.3115 78.2795 55.11 78.031 55.11C77.7825 55.11 77.581 55.3115 77.581 55.56C77.581 55.8085 77.7825 56.01 78.031 56.01Z" fill="white"/>
<path d="M72.271 53.55C72.5195 53.55 72.721 53.3485 72.721 53.1C72.721 52.8515 72.5195 52.65 72.271 52.65C72.0225 52.65 71.821 52.8515 71.821 53.1C71.821 53.3485 72.0225 53.55 72.271 53.55Z" fill="white"/>
<path d="M66.391 53.79C66.6395 53.79 66.841 53.5885 66.841 53.34C66.841 53.0915 66.6395 52.89 66.391 52.89C66.1425 52.89 65.941 53.0915 65.941 53.34C65.941 53.5885 66.1425 53.79 66.391 53.79Z" fill="white"/>
<path d="M54.262 7.428L55.381 7.321L54.264 7.258C54.229 7.042 54.056 6.873 53.838 6.845L53.731 5.731L53.667 6.854C53.465 6.899 53.31 7.068 53.285 7.278L52.141 7.382L53.293 7.444C53.335 7.637 53.491 7.788 53.687 7.824L53.791 8.972L53.852 7.826C54.059 7.791 54.223 7.632 54.262 7.428Z" fill="white"/>
<path d="M35.376 19.886L36.495 19.779L35.378 19.716C35.344 19.5 35.17 19.331 34.952 19.303L34.845 18.189L34.782 19.312C34.579 19.357 34.424 19.526 34.399 19.736L33.255 19.84L34.407 19.902C34.449 20.095 34.605 20.246 34.801 20.282L34.905 21.43L34.967 20.284C35.174 20.25 35.338 20.09 35.376 19.886Z" fill="white"/>
<path d="M77.211 52.824L78.33 52.717L77.213 52.654C77.179 52.438 77.005 52.269 76.787 52.241L76.68 51.127L76.617 52.25C76.415 52.295 76.26 52.464 76.235 52.674L75.091 52.778L76.243 52.84C76.285 53.033 76.441 53.184 76.637 53.22L76.741 54.368L76.803 53.222C77.008 53.188 77.172 53.029 77.211 52.824Z" fill="white"/>
<path d="M31.596 70.046L32.715 69.939L31.598 69.876C31.563 69.66 31.39 69.491 31.172 69.463L31.065 68.35L31.002 69.472C30.799 69.517 30.644 69.686 30.619 69.896L29.475 70L30.627 70.062C30.669 70.255 30.825 70.407 31.021 70.442L31.125 71.59L31.187 70.444C31.393 70.41 31.558 70.25 31.596 70.046Z" fill="white"/>
<path d="M73.656 61.646L74.775 61.539L73.658 61.476C73.624 61.26 73.45 61.091 73.232 61.063L73.125 59.949L73.062 61.071C72.86 61.116 72.705 61.285 72.68 61.495L71.536 61.599L72.688 61.661C72.73 61.854 72.886 62.005 73.082 62.041L73.186 63.189L73.248 62.043C73.453 62.01 73.618 61.85 73.656 61.646Z" fill="white"/>
<path d="M55.12 30.525C50.453 32.339 45.901 33.958 42.06 35.16C34.255 37.604 12.9 44.22 0 52.56L1.08 52.98C8.94 48.54 14.049 47.145 18.96 45.6C24.3 43.92 41.563 39.88 49.38 37.68C52.021 36.937 55.114 35.964 58.39 34.78C57.628 33.717 56.824 32.651 55.978 31.587C55.695 31.228 55.408 30.874 55.12 30.525ZM60.822 38.384C59.692 39.147 58.745 39.756 58.082 40.14C54.242 42.36 35.521 55.14 31.262 58.08C27.003 61.02 15.182 72.18 11.702 75.42L11.582 76.739C22.802 66.659 26.322 64.173 30.782 60.78C36.302 56.58 47.721 48.81 51.602 46.32C55.312 43.94 58.658 41.751 61.661 39.748C61.612 39.666 61.563 39.584 61.514 39.501C61.288 39.13 61.057 38.758 60.822 38.384ZM78.361 19.86C72.895 23.064 64.28 26.931 55.922 30.212C56.122 30.457 56.321 30.704 56.519 30.953C57.453 32.129 58.334 33.313 59.163 34.498C65.733 32.078 72.942 28.83 78.662 24.899C75.937 27.481 66.928 34.214 61.435 37.967C61.718 38.428 61.992 38.889 62.257 39.348C70.579 33.779 76.179 29.68 79.442 26.939C83.942 23.159 94.202 14.699 98.102 3.359C91.261 12.06 83.173 17.039 78.361 19.86Z" fill="#FC3D21"/>
<path d="M40.436 50.079C39.551 48.965 38.327 47.473 37.408 46.316C36.179 44.769 35.042 43.206 34 41.645C33.66 41.73 33.321 41.815 32.982 41.9C34.24 43.863 35.637 45.823 37.159 47.739C38.271 49.139 39.282 50.266 39.8 50.967C39.905 51.109 40.113 51.423 40.394 51.841C40.718 51.621 41.045 51.399 41.375 51.175C41.056 50.828 40.741 50.463 40.436 50.079ZM46.896 55.943C46.169 55.255 44.406 54.106 42.571 52.382C42.166 52.66 41.757 52.942 41.347 53.226C42.532 54.896 44.146 56.947 45.41 57.545C47.314 58.447 47.827 56.825 46.896 55.943ZM56.519 30.953C46.027 17.747 33.21 10.492 27.684 14.883C23.392 18.293 25.154 28.259 31.07 38.728C31.376 38.623 31.679 38.52 31.979 38.418C26.008 28.218 24.374 18.739 28.422 15.522C33.509 11.48 45.792 18.763 55.98 31.586C58.089 34.24 59.944 36.904 61.514 39.501C67.526 49.451 69.37 58.449 65.216 62.122C63.945 63.246 60.061 63.687 54.973 61.397C54.902 61.486 55.016 61.727 55.105 61.786C59.497 63.552 63.704 64.225 65.828 62.538C70.932 58.482 67.011 44.159 56.519 30.953Z" fill="white"/>
<path d="M11.521 32.52H18.241L23.881 42.09C23.881 42.09 23.881 35.16 23.881 34.62C23.881 33.78 22.816 32.685 22.441 32.52C22.891 32.52 26.821 32.52 27.091 32.52C26.806 32.595 25.891 33.705 25.891 34.62C25.891 35.07 25.891 45.12 25.891 45.6C25.891 46.275 26.866 47.205 27.331 47.565H20.851L15.121 37.95C15.121 37.95 15.121 45.12 15.121 45.51C15.121 46.26 15.856 46.98 16.621 47.595H11.671C12.376 47.295 13.051 46.35 13.111 45.6C13.171 44.85 13.111 35.175 13.111 34.755C13.111 33.84 12.226 33.09 11.521 32.52Z" fill="white"/>
<path d="M72.991 47.565H81.931C81.436 47.445 80.881 46.86 80.581 46.08C80.281 45.3 75.541 32.52 75.541 32.52H72.142C71.178 33.214 70.145 33.946 69.042 34.717C69.039 34.745 69.036 34.773 69.031 34.8C68.883 35.7 66.223 45.334 66.061 45.81C65.836 46.47 64.681 47.205 64.216 47.595H69.031C68.551 47.055 68.161 46.53 68.251 45.93C68.341 45.33 68.611 44.13 68.611 44.13H73.591C73.816 44.73 73.984 45.269 74.071 45.78C74.176 46.395 73.546 47.085 72.991 47.565ZM69.061 42.21L70.741 36.72L72.961 42.21H69.061ZM68.304 33.068C68.551 32.886 68.799 32.703 69.046 32.52H67.741C67.871 32.64 68.086 32.829 68.304 33.068Z" fill="white"/>
<path d="M34.111 45.93C34.201 45.33 34.471 44.13 34.471 44.13H39.451C39.676 44.73 39.844 45.269 39.931 45.78C40.036 46.395 39.406 47.085 38.851 47.565H46.722C46.886 47.455 47.049 47.345 47.212 47.236C46.907 46.966 46.626 46.561 46.441 46.08C46.141 45.3 41.401 32.52 41.401 32.52H33.601C33.976 32.865 35.056 33.795 34.891 34.8C34.744 35.7 32.083 45.334 31.921 45.81C31.696 46.47 30.541 47.205 30.076 47.595H34.891C34.411 47.055 34.021 46.53 34.111 45.93ZM36.601 36.72L38.821 42.21H34.921L36.601 36.72Z" fill="white"/>
<path d="M61.3 39.988C59.832 40.966 58.283 41.987 56.651 43.053C57.383 43.408 57.966 43.854 58.022 44.43C58.126 45.512 55.952 46.035 53.987 45.81C53.594 45.765 53.208 45.662 52.84 45.524C52.432 45.787 52.02 46.052 51.602 46.32C51.177 46.593 50.661 46.929 50.072 47.317V48.87C50.462 48.105 51.315 47.42 51.977 47.385C52.262 47.37 53.252 48.285 57.332 48.06C59.312 47.951 63.137 45.84 63.077 43.41C63.041 41.974 62.291 40.854 61.3 39.988ZM50.071 43.74V45.322C50.432 45.081 50.788 44.844 51.137 44.613C50.588 44.231 50.199 43.874 50.071 43.74ZM59.905 38.995C59.525 38.77 59.14 38.573 58.771 38.399C56.851 37.499 54.841 37.334 54.421 36.119C54.125 35.262 54.961 34.469 57.001 34.499C59.041 34.529 60.931 35.744 61.441 36.179V32.309C61.291 32.459 60.633 33.214 60.031 33.089C58.876 32.849 56.911 32.536 54.661 32.549C52.081 32.564 49.861 34.558 49.786 37.079C49.681 40.604 52.501 41.564 54.091 42.119C54.255 42.176 54.442 42.237 54.645 42.302C56.17 41.31 57.376 40.547 58.082 40.14C58.556 39.867 59.177 39.474 59.905 38.995Z" fill="white"/>
</svg>
